<svg xmlns="http://www.w3.org/2000/svg" width="1000" height="440" viewBox="0 0 1000 440" role="img" aria-labelledby="title desc">
<title id="title">Ix — building AI that remembers and acts</title><desc id="desc">ASCII Ix lettering beside an animated context graph. Tanner Kocher, building at Ix.</desc>
<defs><radialGradient id="glow"><stop stop-color="#16447a" stop-opacity=".55"/><stop offset="1" stop-color="#0a0f2c" stop-opacity="0"/></radialGradient><pattern id="grid" width="28" height="28" patternUnits="userSpaceOnUse"><path d="M28 0H0V28" fill="none" stroke="#c4dffb" stroke-opacity=".045"/></pattern></defs>
<style>
.pulse{animation:none}.flow{stroke-dasharray:5 13;animation:none}.cursor{animation:none}
@keyframes pulse{0%,100%{opacity:.35}50%{opacity:1}}@keyframes flow{to{stroke-dashoffset:-108}}@keyframes blink{50%{opacity:0}}
@media(prefers-reduced-motion:reduce){.pulse,.flow,.cursor{animation:none}}
</style>
<rect width="1000" height="440" rx="18" fill="#0a0f2c"/><rect width="1000" height="440" rx="18" fill="url(#grid)"/>
<ellipse cx="785" cy="210" rx="270" ry="210" fill="url(#glow)"/>
<g font-family="ui-monospace, SFMono-Regular, Menlo, Consolas, monospace">
<circle cx="32" cy="30" r="4" fill="#489af1"/><text x="47" y="35" fill="#a0b0ca" font-size="11" letter-spacing="2">IX / TANNER KOCHER</text><text x="965" y="35" text-anchor="end" fill="#a0b0ca" font-size="11">CONTEXT → MEMORY → ACTION</text>
<path d="M28 54H972" stroke="#c4dffb" stroke-opacity=".14"/>
<text x="46" y="104" xml:space="preserve" fill="#c4dffb" font-size="23">██╗██╗  ██╗</text>
<text x="46" y="128" xml:space="preserve" fill="#c4dffb" font-size="23">██║╚██╗██╔╝</text>
<text x="46" y="152" xml:space="preserve" fill="#c4dffb" font-size="23">██║ ╚███╔╝ </text>
<text x="46" y="176" xml:space="preserve" fill="#c4dffb" font-size="23">██║ ██╔██╗ </text>
<text x="46" y="200" xml:space="preserve" fill="#c4dffb" font-size="23">██║██╔╝ ██╗</text>
<text x="46" y="224" xml:space="preserve" fill="#c4dffb" font-size="23">╚═╝╚═╝  ╚═╝</text>
<text x="46" y="294" fill="#e4e1de" font-size="27" font-weight="600">Building AI that</text><text x="46" y="329" fill="#e4e1de" font-size="27" font-weight="600">remembers and acts.</text>
<text x="46" y="373" fill="#9aacc7" font-size="13">Persistent memory. Connected tools. AI teammates.</text>
<path d="M755 215L720 115" stroke="#489af1" stroke-opacity=".5" fill="none"/><path class="flow" d="M720 115L755 215" stroke="#c4dffb" stroke-opacity=".75" fill="none"/><circle cx="720" cy="115" r="5" fill="#c4dffb"/><circle class="pulse" cx="720" cy="115" r="11" fill="none" stroke="#489af1"/><text x="720" y="93" text-anchor="middle" font-size="10" letter-spacing="1.5" fill="#a0b0ca">CONTEXT</text><path d="M755 215L878 160" stroke="#489af1" stroke-opacity=".5" fill="none"/><path class="flow" d="M878 160L755 215" stroke="#c4dffb" stroke-opacity=".75" fill="none"/><circle cx="878" cy="160" r="5" fill="#c4dffb"/><circle class="pulse" cx="878" cy="160" r="11" fill="none" stroke="#489af1"/><text x="878" y="138" text-anchor="middle" font-size="10" letter-spacing="1.5" fill="#a0b0ca">TOOLS</text><path d="M755 215L844 290" stroke="#489af1" stroke-opacity=".5" fill="none"/><path class="flow" d="M844 290L755 215" stroke="#c4dffb" stroke-opacity=".75" fill="none"/><circle cx="844" cy="290" r="5" fill="#c4dffb"/><circle class="pulse" cx="844" cy="290" r="11" fill="none" stroke="#489af1"/><text x="844" y="268" text-anchor="middle" font-size="10" letter-spacing="1.5" fill="#a0b0ca">ACTION</text><path d="M755 215L652 282" stroke="#489af1" stroke-opacity=".5" fill="none"/><path class="flow" d="M652 282L755 215" stroke="#c4dffb" stroke-opacity=".75" fill="none"/><circle cx="652" cy="282" r="5" fill="#c4dffb"/><circle class="pulse" cx="652" cy="282" r="11" fill="none" stroke="#489af1"/><text x="652" y="260" text-anchor="middle" font-size="10" letter-spacing="1.5" fill="#a0b0ca">MEMORY</text><path d="M755 215L605 157" stroke="#489af1" stroke-opacity=".5" fill="none"/><path class="flow" d="M605 157L755 215" stroke="#c4dffb" stroke-opacity=".75" fill="none"/><circle cx="605" cy="157" r="5" fill="#c4dffb"/><circle class="pulse" cx="605" cy="157" r="11" fill="none" stroke="#489af1"/><text x="605" y="135" text-anchor="middle" font-size="10" letter-spacing="1.5" fill="#a0b0ca">SIGNALS</text><circle cx="755" cy="215" r="43" fill="#101d3b" stroke="#489af1"/><circle class="pulse" cx="755" cy="215" r="52" fill="none" stroke="#489af1" stroke-opacity=".4"/><text x="755" y="224" text-anchor="middle" fill="#e4e1de" font-size="27">Ix</text>
<path d="M28 398H972" stroke="#c4dffb" stroke-opacity=".14"/><text x="46" y="423" fill="#9aacc7" font-size="11">$ building @ ix</text><rect class="cursor" x="159" y="413" width="7" height="12" fill="#489af1"/><text x="955" y="423" text-anchor="end" fill="#9aacc7" font-size="11">ix-infra.com</text></g></svg>